{"title":"Carmen Caliente - Cumsumption","uid":11146319,"size":1153756974,"categoryP":"porn","categoryS":"movies","magnet":"?xt=urn:btih:9084de3ce259270e65dd6435bf9ffdc33fc3a2bd&amp;dn=Carmen+Caliente+-+Cumsumption&amp;tr=udp%3A%2F%2Ftracker.openbittorrent.com%3A80&amp;tr=udp%3A%2F%2Fopen.demonii.com%3A1337&amp;tr=udp%3A%2F%2Ftracker.coppersurfer.tk%3A6969&amp;tr=udp%3A%2F%2Fexodus.desync.com%3A6969","seeders":0,"leechers":2,"uploader":"DavidL0ng","files":-1,"time":1412266098,"description":"screens;\n &lt;a href=&quot;\nhttp://bayimg.com/IAACCAaGm&quot; rel=&quot;nofollow&quot; target=&quot;_NEW&quot;&gt;\nhttp://bayimg.com/IAACCAaGm&lt;/a&gt;\n\nVideo\nID                                       : 0\nFormat                                   : MPEG-4 Visual\nFormat profile                           : Simple@L1\nFormat settings, BVOP                    : No\nFormat settings, QPel                    : No\nFormat settings, GMC                     : No warppoints\nFormat settings, Matrix                  : Default (H.263)\nCodec ID                                 : DX50\nCodec ID/Hint                            : DivX 5\nDuration                                 : 26mn 0s\nBit rate                                 : 5 649 Kbps\nWidth                                    : 720 pixels\nHeight                                   : 406 pixels\nDisplay aspect ratio                     : 16:9\nFrame rate                               : 23.976 fps\nColor space                              : YUV\nChroma subsampling                       : 4:2:0\nBit depth                                : 8 bits\nScan type                                : Interlaced\nScan order                               : Top Field First\nCompression mode                         : Lossy\nBits/(Pixel*Frame)                       : 0.806\nStream size                              : 1.03 GiB (95%)\nWriting library                          : Lavc52.72.2\n\nAudio\nID                                       : 1\nFormat                                   : MPEG Audio\nFormat version                           : Version 1\nFormat profile                           : Layer 3\nMode                                     : Joint stereo\nMode extension                           : MS Stereo\nCodec ID                                 : 55\nCodec ID/Hint                            : MP3\nDuration                                 : 26mn 0s\nBit rate mode                            : Constant\nBit rate                                 : 256 Kbps\nChannel(s)                               : 2 channels\nSampling rate                            : 44.1 KHz\nCompression mode                         : Lossy\nStream size                              : 47.6 MiB (4%)\nAlignment                                : Aligned on interleaves\nInterleave, duration                     : 26 ms (0.63 video frame)\nInterleave, preload duration             : 809 ms\nWriting library                          : LAME3.98.4\n","torrent":{"xt":"urn:btih:9084de3ce259270e65dd6435bf9ffdc33fc3a2bd","amp;dn":"Carmen+Caliente+-+Cumsumption","amp;tr":["udp%3A%2F%2Ftracker.openbittorrent.com%3A80","udp%3A%2F%2Fopen.demonii.com%3A1337","udp%3A%2F%2Ftracker.coppersurfer.tk%3A6969","udp%3A%2F%2Fexodus.desync.com%3A6969"],"infoHash":"9084de3ce259270e65dd6435bf9ffdc33fc3a2bd","infoHashBuffer":{"type":"Buffer","data":[144,132,222,60,226,89,39,14,101,221,100,53,191,159,253,195,63,195,162,189]},"announce":[],"urlList":[]}}